<?xml version="1.0" encoding="UTF-8"?>
<!DOCTYPE svg PUBLIC "-//W3C//DTD SVG 1.1//EN" "http://www.w3.org/Graphics/SVG/1.1/DTD/svg11.dtd">
<!-- Creator: CorelDRAW -->
<svg xmlns="http://www.w3.org/2000/svg" xml:space="preserve" width="320mm" height="140mm" version="1.1" style="shape-rendering:geometricPrecision; text-rendering:geometricPrecision; image-rendering:optimizeQuality; fill-rule:evenodd; clip-rule:evenodd"
viewBox="0 0 32000 14000"
 xmlns:xlink="http://www.w3.org/1999/xlink"
 xmlns:xodm="http://www.corel.com/coreldraw/odm/2003">
 <defs>
  <style type="text/css">
   <![CDATA[
    .fil0 {fill:#FEFEFE;fill-rule:nonzero}
    .fil4 {fill:url(#id0)}
    .fil1 {fill:url(#id1)}
    .fil2 {fill:url(#id2)}
    .fil3 {fill:url(#id3)}
    .fil5 {fill:url(#id4)}
   ]]>
  </style>
  <linearGradient id="id0" gradientUnits="userSpaceOnUse" x1="1262.58" y1="11190.37" x2="9070.28" y2="6723.6">
   <stop offset="0" style="stop-opacity:1; stop-color:#00582C"/>
   <stop offset="1" style="stop-opacity:1; stop-color:#009D4E"/>
  </linearGradient>
  <linearGradient id="id1" gradientUnits="userSpaceOnUse" xlink:href="#id0" x1="1262.57" y1="11190.38" x2="9070.29" y2="6723.59">
  </linearGradient>
  <linearGradient id="id2" gradientUnits="userSpaceOnUse" xlink:href="#id0" x1="1262.57" y1="11190.38" x2="9070.3" y2="6723.57">
  </linearGradient>
  <linearGradient id="id3" gradientUnits="userSpaceOnUse" xlink:href="#id0" x1="1262.58" y1="11190.36" x2="9070.28" y2="6723.6">
  </linearGradient>
  <linearGradient id="id4" gradientUnits="userSpaceOnUse" xlink:href="#id0" x1="1262.59" y1="11190.4" x2="9070.28" y2="6723.6">
  </linearGradient>
 </defs>
 <g id="Layer_x0020_1">
  <metadata id="CorelCorpID_0Corel-Layer"/>
  <g id="_2329473935552">
   <polygon class="fil0" points="12657.44,8648.86 12657.44,8179.79 10806.84,8179.79 10806.84,7532.05 12349.1,7532.05 12349.1,7062.98 10806.84,7062.98 10806.84,6413.45 12657.44,6413.45 12657.44,5944.38 10260.69,5944.38 10260.69,8648.86 "/>
   <path id="_1" class="fil0" d="M14513.41 8725.94c216.91,0 424.85,-41.83 626.22,-126.08 201.38,-86.05 381.83,-203.16 537.79,-353.75l-344.78 -393.78c-89.63,110.55 -217.5,197.79 -381.83,262.33 -166.12,63.33 -325.66,95 -478.03,95 -209.74,0 -399.16,-35.25 -565.28,-106.96 -167.91,-71.7 -299.37,-176.87 -397.37,-313.11 -97.99,-136.84 -146.99,-301.16 -146.99,-492.37 0,-192.41 49,-356.74 146.99,-493.57 98,-136.24 229.46,-239.62 397.37,-313.12 166.12,-71.7 355.54,-106.96 565.28,-106.96 190.61,0 365.69,38.24 523.44,115.33 155.96,75.29 269.5,157.75 339.41,246.78l343.59 -391.99c-117.72,-131.45 -292.8,-244.99 -523.45,-341.19 -231.25,-96.21 -455.33,-145.21 -670.45,-145.21 -327.45,0 -616.66,62.75 -863.45,187.04 -248.57,124.28 -442.77,293.99 -580.81,509.7 -138.63,215.12 -208.54,460.11 -208.54,733.19 0,273.07 69.91,516.87 211.53,731.99 142.22,215.11 338.21,384.81 590.37,509.1 253.96,124.29 546.16,187.63 878.99,187.63z"/>
   <path id="_2" class="fil0" d="M17425.84 8725.94c308.33,0 586.79,-63.34 837.16,-187.63 252.16,-124.29 451.74,-293.99 600.53,-509.1 148.79,-215.12 224.08,-460.71 224.08,-731.99 0,-273.08 -75.29,-518.07 -224.08,-733.19 -148.79,-213.92 -348.37,-385.42 -600.53,-509.7 -250.37,-124.29 -528.83,-187.04 -837.16,-187.04 -305.94,0 -584.4,62.75 -836.56,187.04 -250.37,124.28 -451.75,295.78 -600.53,509.7 -148.79,215.12 -222.29,460.11 -222.29,733.19 0,271.28 73.5,516.87 222.29,731.99 148.78,215.11 350.16,384.81 600.53,509.1 252.16,124.29 530.62,187.63 836.56,187.63zm0 -516.28c-192.41,0 -374.66,-35.25 -542.57,-106.96 -169.7,-71.7 -306.54,-176.87 -412.9,-313.11 -105.17,-136.84 -157.76,-301.16 -157.76,-492.37 0,-192.41 52.59,-356.74 157.76,-493.57 106.36,-136.24 243.2,-241.41 412.9,-313.12 167.91,-71.7 350.16,-106.96 542.57,-106.96 194.8,0 376.45,35.26 544.36,106.96 170.3,69.91 306.54,175.08 411.71,309.53 106.96,136.84 159.54,302.95 159.54,497.16 0,193 -52.58,359.12 -159.54,495.36 -105.17,136.84 -241.41,240.21 -411.71,311.92 -167.91,69.91 -349.56,105.16 -544.36,105.16z"/>
   <polygon id="_3" class="fil0" points="21834.52,8648.86 21834.52,8179.79 19983.92,8179.79 19983.92,5944.38 19437.77,5944.38 19437.77,8648.86 "/>
   <path id="_4" class="fil0" d="M23567.99 8725.94c195.99,0 384.82,-24.5 565.28,-73.5 182.25,-47.2 342.98,-124.28 482.81,-225.87 140.42,-101.58 252.16,-234.83 334.62,-393.78 82.47,-161.34 124.29,-355.54 124.29,-581.41l0 -1507 -546.15 0 0 1507c0,166.12 -47.21,302.96 -139.83,411.71 -91.42,108.15 -210.33,187.03 -357.33,239.61 -145.2,50.8 -299.37,77.09 -463.69,77.09 -163.13,0 -319.09,-26.29 -464.29,-80.67 -145.21,-52.58 -264.12,-133.25 -356.74,-241.41 -91.42,-108.75 -138.63,-243.2 -138.63,-406.33l0 -1507 -546.15 0 0 1507c0,225.87 41.83,420.07 124.29,581.41 82.46,158.95 192.41,292.2 334.62,393.78 139.83,101.59 300.57,178.67 481.03,225.87 182.25,49 369.28,73.5 565.87,73.5z"/>
   <polygon id="_5" class="fil0" points="28656.66,8648.86 27424.53,7302.59 28656.66,5944.38 27910.93,5944.38 27044.49,6887.9 26179.85,5944.38 25425.15,5944.38 26660.87,7304.39 25425.15,8648.86 26198.97,8648.86 27042.7,7722.67 27884.64,8648.86 "/>
   <polygon id="_6" class="fil0" points="31405.37,8648.86 31405.37,8179.79 29554.77,8179.79 29554.77,7532.05 31097.03,7532.05 31097.03,7062.98 29554.77,7062.98 29554.77,6413.45 31405.37,6413.45 31405.37,5944.38 29008.62,5944.38 29008.62,8648.86 "/>
   <path id="_7" class="fil0" d="M13181.79 12158.59c276.66,0 500.74,-77.08 672.23,-229.46 173.29,-152.37 259.34,-346.57 259.34,-582.6 0,-150.58 -37.05,-278.46 -112.34,-383.63 -73.5,-106.96 -194.2,-197.78 -360.32,-273.07 111.74,-84.26 192.41,-167.91 243.2,-250.37 50.79,-82.46 75.29,-171.5 75.29,-267.7 0,-234.84 -84.25,-413.5 -248.58,-534.21 -166.11,-122.49 -393.78,-183.44 -682.99,-183.44l-1655.79 0 0 2704.48 1809.96 0zm-154.17 -1624.72l-1109.64 0 0 -610.69 1109.64 0c98.6,0 187.63,24.5 266.51,73.5 78.87,49 118.91,126.08 118.91,233.04 0,104.57 -38.24,181.65 -111.74,230.65 -74.1,49 -164.92,73.5 -273.68,73.5zm154.17 1155.65l-1263.81 0 0 -686.58 1263.81 0c65.13,0 126.08,10.76 185.83,33.46 57.97,20.92 106.96,57.96 143.42,108.76 37.04,52.58 56.16,118.91 56.16,201.37 0,228.86 -129.66,342.99 -385.41,342.99z"/>
   <polygon id="_8" class="fil0" points="17476.33,12158.59 17476.33,9454.11 16930.18,9454.11 16930.18,10572.71 15009.67,10572.71 15009.67,9454.11 14463.52,9454.11 14463.52,12158.59 15009.67,12158.59 15009.67,11041.78 16930.18,11041.78 16930.18,12158.59 "/>
   <path id="_9" class="fil0" d="M21103.42 12158.59l-1351.05 -2704.48 -574.24 0 -1351.64 2704.48 576.03 0 301.16 -616.07 1524.93 0 299.37 616.07 575.44 0zm-1104.26 -1085.14l-1067.81 0 533.6 -1099.48 534.21 1099.48z"/>
   <path id="_10" class="fil0" d="M24125.19 12158.59l-613.08 -997.9c176.88,-84.25 310.13,-194.2 397.37,-332.83 89.63,-139.83 133.25,-300.56 133.25,-482.82 0,-173.28 -38.24,-327.45 -113.53,-460.7 -75.29,-134.45 -182.25,-239.62 -322.08,-314.91 -138.63,-77.08 -302.95,-115.32 -495.96,-115.32l-1655.79 0 0 2704.48 546.15 0 0 -924.4 952.49 0 551.53 924.4 619.65 0zm-1014.03 -1393.47l-1109.64 0 0 -841.94 1109.64 0c101.58,0 191.22,38.24 268.3,111.74 77.08,73.5 117.12,176.87 117.12,310.12 0,131.46 -37.05,234.24 -108.75,308.34 -73.5,73.5 -164.33,111.74 -276.67,111.74z"/>
   <path id="_11" class="fil0" d="M27717.03 12158.59l-1351.05 -2704.48 -574.24 0 -1351.64 2704.48 576.03 0 301.16 -616.07 1524.93 0 299.37 616.07 575.44 0zm-1104.26 -1085.14l-1067.81 0 533.6 -1099.48 534.21 1099.48z"/>
   <polygon id="_12" class="fil0" points="29060.31,12158.59 29060.31,9923.18 30294.23,9923.18 30294.23,9454.11 27281.42,9454.11 27281.42,9923.18 28514.15,9923.18 28514.15,12158.59 "/>
   <g>
    <path class="fil1" d="M4473.66 13511.87c64.37,15.16 417.12,-6.16 503.12,-13.11 160.43,-12.97 313.95,-27.53 467.79,-53.14 294.29,-49 568.67,-121.36 829.53,-217.8 120.69,-44.63 253.36,-98.45 367.57,-153.78 120.15,-58.21 236.59,-115.56 346.2,-179.75 232.84,-136.36 426.09,-266.62 619.2,-428.17 27.62,-23.11 43.9,-40.04 68.4,-59.46 74.84,-59.32 267.11,-252.27 331.22,-322.62 40.16,-44.07 82.5,-88.29 124.07,-141.35 34.4,-43.9 75.27,-89.41 117.25,-143.59 36.75,-47.42 71.8,-100.44 108.99,-151.47 74.64,-102.43 137.92,-208.78 204.02,-322.12 111.45,-191.12 251.62,-522.09 317.59,-729.29 84.04,-263.93 155.97,-599.44 174.52,-872.9 17.68,-260.45 22.41,-491.85 1.1,-753.64 -6.75,-83.02 -16.58,-155.32 -24.19,-234.84 -7.47,-78.03 -57.2,-366.95 -76.52,-445.71 -33.43,-136.28 -69.86,-283.54 -115.23,-410.93 -22.79,-63.97 -43.9,-130.57 -66.83,-193.61 -45.01,-123.77 -100.8,-245.45 -156.78,-364.5 -124.21,-264.12 -319.83,-586.71 -500.07,-812.77 -116.86,-146.58 -230.38,-285.09 -362.92,-418.7 -264.56,-266.7 -553.22,-497.08 -881.88,-691.37 -337.35,-199.42 -732.42,-367.01 -1117.37,-450.26 -52.24,-11.29 -178.91,-43.93 -223.87,-41.94 8.78,19.14 103.91,52.46 143.6,72.95 54.15,27.96 95.45,51.75 142.15,78.79 45.64,26.43 91.12,54.36 137.85,83.27 75.04,46.42 191.97,124.42 262.75,179.6 67.17,52.36 188.91,147.8 241.56,200.89 16.91,17.05 38.97,32.84 58.98,49.2 78.05,63.79 195.81,205.17 266.3,284.23l193.06 249.49c211.57,302.75 319.9,500.81 467.28,855.02 133.76,321.49 230.02,708.7 273.99,1053.26 65.84,515.98 53,1134.81 -54.68,1632.04 -82.85,382.59 -179.03,630.72 -350.25,972.91 -102.78,205.4 -294.89,481.26 -436.54,664.67 -17.61,22.79 -30.12,38.31 -47.16,61.08l-501.92 604.23c-17.41,20.3 -33.6,34.36 -52.03,56.13 -98.84,116.81 -209.4,234.73 -311.36,352.38l-214.98 227.51c-145.7,149.86 -295.36,291.6 -454.55,425.56 -166.32,139.97 -346.18,248.6 -535.06,349.96 -47.58,25.53 -92.79,52.35 -145.31,76.12 -23.63,10.7 -135.92,53.95 -138.59,77.53z"/>
    <path class="fil2" d="M3220.96 13168.64c-7.57,-16.75 -98.23,-71.55 -132.59,-96.04l-320.91 -254.37c-166.8,-144.2 -353.77,-367.04 -494.48,-547.63 -20.08,-25.78 -29.86,-42.38 -47.19,-66.19 -16.58,-22.78 -35.7,-45.15 -50.14,-67.65 -29.75,-46.37 -62.01,-92.67 -90.43,-140.69 -29.46,-49.78 -59.38,-96.95 -86.14,-144.89 -26.28,-47.08 -52.53,-105.58 -79.27,-151.98 -118.47,-205.63 -253.9,-616.04 -311.39,-848.4 -15.51,-62.7 -25.74,-130.62 -36.67,-193.84 -73.54,-425.68 -76.92,-863.27 1.95,-1289.41 34.69,-187.41 45.2,-205.82 86.73,-374.81 45.21,-183.92 114.24,-341.27 185.39,-508.12 33.5,-78.56 109.55,-232.25 153.47,-308.77 99.81,-173.86 150.94,-257.37 269.69,-428.43 66.96,-96.46 224.61,-304.19 303.76,-389.42 18.35,-19.76 31.17,-39.8 50.53,-62.63 67.91,-80.11 265.49,-289.4 338.37,-359.63l181.39 -167.67c79.01,-69.21 94.31,-95.06 181.4,-162.64 23.58,-18.3 41.22,-38 61.23,-56.98 22.99,-21.83 38.68,-31.09 62.64,-50.22 25.24,-20.16 39.05,-37.6 61.67,-56.46 22.79,-18.99 44.05,-34.67 62.61,-50.63l188.96 -159.8c20.34,-16.68 39.96,-37.49 62.28,-55.65 64.02,-52.09 128.51,-102.43 189.85,-159.42 38.91,-36.15 76.56,-63.48 123.24,-107.91 92.18,-87.72 156.19,-148.24 233.92,-228.14 37.91,-38.96 67.44,-73.47 113.27,-117.92 78.02,-75.67 140.84,-170.72 207.24,-254.98 128.85,-163.49 256.49,-402.24 325.36,-603.46 21.22,-61.99 33.86,-115.1 50.24,-181.29 56.2,-227.15 68.27,-494.01 12.79,-727.35 -4.17,-17.55 -7.44,-30.65 -11.84,-46.91 -12.07,-44.61 -10.28,-33.94 -20.66,-37.86 -28.89,375.69 -266.42,633.57 -500.37,813.46 -97.91,75.29 -205.76,148.11 -312.9,213.33l-166.5 99.03c-115.1,65.46 -224.85,125.76 -336.25,189.43l-990.87 587.4c-122.2,74.99 -341.66,231.41 -463.12,323.53l-433.44 358.16c-66.26,55.82 -202.61,194.55 -266.04,260.08 -149.43,154.35 -351.98,409.11 -468.32,583.91 -162.95,244.83 -252.89,413.2 -369.96,687.11 -47.65,111.48 -108.99,273.06 -140.24,386.23 -89.16,322.86 -87.09,346.29 -132.12,653.74 -31.77,216.9 -40.54,549.34 -22.41,759 20.16,233.11 49.46,454.54 110.54,675.68 19.89,72 34.32,140.54 56.76,209.18 90.57,277.07 253.39,667.89 412.21,905.2l156.52 236.78c20.09,28.67 37.53,50.82 56.51,76.29 19.29,25.89 36.45,53.05 55.7,77.08 21.55,26.9 40.01,41.72 60.68,72.03 19.43,28.51 37.54,45.92 59.24,68.63 50.89,53.23 45.86,62.61 125.36,140.06 23.59,22.98 42.52,43.41 65.53,67.21 292.82,302.84 687.39,580.04 1062.62,776.51 90.38,47.33 492.44,244.11 554.6,239.13z"/>
    <path class="fil3" d="M2989.38 11665.38c-0.1,182.56 8.56,342.13 49,509.11 85.37,352.49 198.23,592.83 388.61,888.76l103.37 149.46c1.29,-32.69 -16.19,-94.1 -21.99,-132.94 -6.79,-45.48 -12.95,-92.12 -20.16,-136.81 -37.88,-234.64 -22.9,-546.83 11.98,-773.54 22.95,-149.16 64.66,-267.26 112.26,-394.42 23.27,-62.17 54.06,-112.27 81.33,-168.54 67.63,-139.55 213.62,-336.34 314.02,-443.61 82.97,-88.65 225.98,-231.29 318.53,-305.83 57.03,-45.92 69.22,-61.89 141.05,-114.7 25.6,-18.82 48.43,-36.29 72.54,-55.31 209.12,-164.97 450.6,-307.42 681.73,-454l227.83 -150.62c185.86,-129.49 401.43,-285.59 562.62,-450.16 21.42,-21.87 42.06,-38.03 62.72,-60.2l177.67 -205.76c129.95,-159.3 198.39,-285.48 291.96,-460.38 79.7,-148.98 152.27,-398.78 192.93,-568.67 39.56,-165.33 41.88,-346.55 41.87,-521.46 -0.08,-468.49 -123.07,-860.46 -277.93,-1233.89 -36.5,-88.01 -81.07,-170.81 -121.83,-256.67 -19.25,-40.56 -45.47,-83.91 -66.2,-120.7 -24.23,-42.98 -43.58,-81.01 -69.99,-121.8 -24.07,-37.16 -46.07,-77.04 -70.41,-116.41 -65.1,-105.29 -136.13,-190.69 -192.45,-279.74 -14.57,-23.03 -25.16,-47.03 -44.8,-53.99 2.12,34.56 21.97,77.98 33.2,110.24l95.92 346.31c33.36,164.71 57.08,344.24 64.37,517.3 25.24,599.51 -134.37,1094.93 -469.83,1571.77 -110.73,157.4 -278,334.23 -414.96,465.02 -183.62,175.35 -297.73,253.99 -480.57,399.49 -68.88,54.81 -186.17,138.03 -246.73,191.09 -29.04,25.43 -56.78,41.12 -84.23,63.17l-81.29 66.23c-30.64,25.35 -54.55,38.81 -81.83,65.5l-154.52 135.55c-106.9,88.87 -202.67,192.99 -297.88,287.21 -62.08,61.43 -145.38,165.44 -204.73,232.86 -59.51,67.6 -248.82,342.32 -297.68,434.96 -120.77,229.01 -183.13,355.12 -254.72,625.43 -44.63,168.54 -70.68,334.55 -70.78,520.69z"/>
    <path class="fil4" d="M1993.04 10696.83c0.58,591.79 218.41,1093.08 544.07,1560.19 25.86,37.08 49.67,56.55 75.37,96.62 33.54,52.29 117.9,139.28 159.67,189.54 26.21,31.55 56.92,78.02 87.24,91.88 -1.85,-31.13 -74.6,-201.85 -90.96,-250.37 -29.37,-87.1 -52.07,-171.99 -75.91,-263.68 -87.13,-335.13 -95.7,-720.25 -41.95,-1066.61 34.52,-222.45 117.82,-503.19 207.52,-707.01 53.08,-120.62 93.78,-195.29 154.63,-307.17 110.34,-202.87 241.81,-381.15 369.92,-544.81 33.92,-43.34 72.93,-82.52 105.12,-121 73.52,-87.9 259.26,-274.96 347.54,-345.7l121.95 -104.18c46.38,-37.35 80.64,-66.64 128.05,-103.13 46.65,-35.9 82.74,-64.22 127.38,-98.74 19.45,-15.04 44.47,-34.28 62.53,-50.36 23.97,-21.33 43.33,-30.9 68.12,-50.1 293.77,-227.49 599.69,-489.33 807.68,-799.96 113.73,-169.86 154.63,-255.05 230.99,-457.13 42.41,-112.26 76.63,-280.13 70.78,-412.6l-234.05 209.78c-81.09,62.54 -168.69,125.01 -264.39,187.96 -83.57,54.96 -189.83,113.98 -283.2,163.92 -238.5,127.55 -672.4,335.45 -884.46,467.83 -116.21,72.54 -300.77,182.03 -412.22,266.25l-251.87 195.6c-16.95,13.62 -40.03,39.26 -58.63,54.4 -328.1,267.03 -659.15,713.19 -825.52,1087.07 -72.48,162.88 -129.36,326 -174.49,503.59 -36.14,142.24 -71.05,460.03 -70.91,607.92z"/>
    <path class="fil5" d="M3831.68 13391.07c17.69,9.95 86.9,-8.25 115.35,-10.54 219.99,-17.69 368.48,-36.18 577.58,-112.45 322.09,-117.47 591.4,-316.14 747.03,-639.15 212.02,-440.06 20.33,-778.81 285.32,-1096.81 82.95,-99.53 200.18,-189.44 335.8,-214.55 41.14,-7.61 88.93,-8.47 131.81,-7.55 78.87,1.69 99.35,10.43 133.49,12.18 -4.96,-57.76 -83.22,-179.28 -110.24,-211.1 -47.16,-55.53 -113.83,-100.09 -194.97,-125.32 -89.05,-27.69 -181.46,-35.91 -282.46,-9.66 -86.66,22.53 -161.62,46.35 -229.13,89.66 -119.36,76.59 -241.19,196.29 -312.3,326.85 -236.92,435 -19.32,757.67 -364.91,1232.83 -71.93,98.9 -83.75,100.84 -143.3,176.27 -38.1,48.25 -115.34,120.37 -161.26,158.27l-124.64 111.4c-17.52,17.17 -27.56,22.98 -45.75,37.81 -30.4,24.78 -53.62,47.18 -86.09,71.32l-179.13 140.38c-14.25,10.33 -82.26,53.64 -92.2,70.16z"/>
   </g>
  </g>
 </g>
</svg>
