<?xml version="1.0" encoding="UTF-8"?>
<!DOCTYPE svg PUBLIC "-//W3C//DTD SVG 1.1//EN" "http://www.w3.org/Graphics/SVG/1.1/DTD/svg11.dtd">
<!-- Creator: CorelDRAW -->
<svg xmlns="http://www.w3.org/2000/svg" xml:space="preserve" width="320mm" height="120mm" version="1.1" style="shape-rendering:geometricPrecision; text-rendering:geometricPrecision; image-rendering:optimizeQuality; fill-rule:evenodd; clip-rule:evenodd"
viewBox="0 0 32000 12000"
 xmlns:xlink="http://www.w3.org/1999/xlink"
 xmlns:xodm="http://www.corel.com/coreldraw/odm/2003">
 <defs>
  <style type="text/css">
   <![CDATA[
    .fil0 {fill:#FEFEFE;fill-rule:nonzero}
    .fil5 {fill:url(#id0)}
    .fil1 {fill:url(#id1)}
    .fil2 {fill:url(#id2)}
    .fil4 {fill:url(#id3)}
    .fil3 {fill:url(#id4)}
   ]]>
  </style>
  <linearGradient id="id0" gradientUnits="userSpaceOnUse" x1="1359.47" y1="8855.16" x2="10081.7" y2="3865.15">
   <stop offset="0" style="stop-opacity:1; stop-color:#00582C"/>
   <stop offset="1" style="stop-opacity:1; stop-color:#009D4E"/>
  </linearGradient>
  <linearGradient id="id1" gradientUnits="userSpaceOnUse" xlink:href="#id0" x1="1359.47" y1="8855.14" x2="10081.7" y2="3865.15">
  </linearGradient>
  <linearGradient id="id2" gradientUnits="userSpaceOnUse" xlink:href="#id0" x1="1359.46" y1="8855.13" x2="10081.68" y2="3865.16">
  </linearGradient>
  <linearGradient id="id3" gradientUnits="userSpaceOnUse" xlink:href="#id0" x1="1359.47" y1="8855.14" x2="10081.69" y2="3865.16">
  </linearGradient>
  <linearGradient id="id4" gradientUnits="userSpaceOnUse" xlink:href="#id0" x1="1359.47" y1="8855.14" x2="10081.69" y2="3865.16">
  </linearGradient>
 </defs>
 <g id="Layer_x0020_1">
  <metadata id="CorelCorpID_0Corel-Layer"/>
  <g id="_1953044934144">
   <polygon class="fil0" points="13727.54,6786.49 13727.54,6344.19 11982.58,6344.19 11982.58,5733.42 13436.81,5733.42 13436.81,5291.13 11982.58,5291.13 11982.58,4678.67 13727.54,4678.67 13727.54,4236.37 11467.6,4236.37 11467.6,6786.49 "/>
   <path id="_1" class="fil0" d="M15477.58 6859.17c204.52,0 400.6,-39.44 590.48,-118.88 189.88,-81.14 360.04,-191.57 507.09,-333.56l-325.1 -371.3c-84.52,104.23 -205.09,186.49 -360.04,247.35 -156.63,59.72 -307.07,89.58 -450.75,89.58 -197.76,0 -376.37,-33.24 -533.01,-100.85 -158.32,-67.62 -282.28,-166.78 -374.68,-295.24 -92.41,-129.03 -138.61,-283.98 -138.61,-464.28 0,-181.42 46.2,-336.37 138.61,-465.39 92.4,-128.47 216.36,-225.94 374.68,-295.25 156.64,-67.61 335.25,-100.85 533.01,-100.85 179.74,0 344.83,36.06 493.57,108.74 147.06,71 254.11,148.75 320.04,232.7l323.97 -369.61c-110.99,-123.96 -276.08,-231.01 -493.57,-321.72 -218.05,-90.72 -429.34,-136.92 -632.17,-136.92 -308.77,0 -581.47,59.16 -814.17,176.36 -234.39,117.19 -417.51,277.21 -547.66,480.61 -130.72,202.83 -196.64,433.84 -196.64,691.33 0,257.49 65.92,487.38 199.46,690.21 134.09,202.84 318.9,362.86 556.67,480.05 239.46,117.2 514.98,176.92 828.82,176.92z"/>
   <path id="_2" class="fil0" d="M18223.76 6859.17c290.74,0 553.3,-59.72 789.38,-176.92 237.77,-117.19 425.96,-277.21 566.25,-480.05 140.3,-202.83 211.29,-434.41 211.29,-690.21 0,-257.49 -70.99,-488.5 -211.29,-691.33 -140.29,-201.71 -328.48,-363.42 -566.25,-480.61 -236.08,-117.2 -498.64,-176.36 -789.38,-176.36 -288.48,0 -551.04,59.16 -788.81,176.36 -236.08,117.19 -425.96,278.9 -566.25,480.61 -140.3,202.83 -209.6,433.84 -209.6,691.33 0,255.8 69.3,487.38 209.6,690.21 140.29,202.84 330.17,362.86 566.25,480.05 237.77,117.2 500.33,176.92 788.81,176.92zm0 -486.81c-181.42,0 -353.27,-33.24 -511.6,-100.85 -160.01,-67.62 -289.04,-166.78 -389.33,-295.24 -99.17,-129.03 -148.75,-283.98 -148.75,-464.28 0,-181.42 49.58,-336.37 148.75,-465.39 100.29,-128.47 229.32,-227.63 389.33,-295.25 158.33,-67.61 330.18,-100.85 511.6,-100.85 183.68,0 354.97,33.24 513.29,100.85 160.58,65.93 289.05,165.09 388.21,291.86 100.86,129.03 150.44,285.67 150.44,468.78 0,181.99 -49.58,338.63 -150.44,467.09 -99.16,129.03 -227.63,226.5 -388.21,294.12 -158.32,65.92 -329.61,99.16 -513.29,99.16z"/>
   <polygon id="_3" class="fil0" points="22380.79,6786.49 22380.79,6344.19 20635.83,6344.19 20635.83,4236.37 20120.85,4236.37 20120.85,6786.49 "/>
   <path id="_4" class="fil0" d="M24015.32 6859.17c184.81,0 362.85,-23.1 533.01,-69.3 171.85,-44.51 323.41,-117.2 455.26,-212.98 132.41,-95.78 237.77,-221.43 315.52,-371.31 77.76,-152.12 117.2,-335.24 117.2,-548.22l0 -1420.99 -514.98 0 0 1420.99c0,156.64 -44.51,285.66 -131.85,388.21 -86.2,101.98 -198.33,176.35 -336.93,225.94 -136.92,47.89 -282.28,72.68 -437.23,72.68 -153.82,0 -300.87,-24.79 -437.79,-76.06 -136.91,-49.59 -249.04,-125.65 -336.37,-227.63 -86.21,-102.55 -130.72,-229.32 -130.72,-383.14l0 -1420.99 -514.98 0 0 1420.99c0,212.98 39.44,396.1 117.19,548.22 77.76,149.88 181.43,275.53 315.53,371.31 131.84,95.78 283.41,168.47 453.57,212.98 171.84,46.2 348.2,69.3 533.57,69.3z"/>
   <polygon id="_5" class="fil0" points="28813.55,6786.49 27651.74,5517.07 28813.55,4236.37 28110.38,4236.37 27293.39,5126.04 26478.1,4236.37 25766.48,4236.37 26931.67,5518.76 25766.48,6786.49 26496.13,6786.49 27291.7,5913.16 28085.59,6786.49 "/>
   <polygon id="_6" class="fil0" points="31405.35,6786.49 31405.35,6344.19 29660.39,6344.19 29660.39,5733.42 31114.62,5733.42 31114.62,5291.13 29660.39,5291.13 29660.39,4678.67 31405.35,4678.67 31405.35,4236.37 29145.41,4236.37 29145.41,6786.49 "/>
   <path id="_7" class="fil0" d="M14221.96 10095.89c260.87,0 472.16,-72.69 633.87,-216.36 163.39,-143.68 244.53,-326.8 244.53,-549.35 0,-141.99 -34.94,-262.56 -105.93,-361.73 -69.3,-100.85 -183.12,-186.5 -339.75,-257.49 105.36,-79.44 181.43,-158.33 229.32,-236.08 47.89,-77.75 70.99,-161.71 70.99,-252.42 0,-221.43 -79.44,-389.9 -234.39,-503.71 -156.63,-115.51 -371.3,-172.98 -644.01,-172.98l-1561.28 0 0 2550.12 1706.65 0zm-145.37 -1531.99l-1046.3 0 0 -575.83 1046.3 0c92.97,0 176.92,23.1 251.3,69.3 74.37,46.21 112.12,118.89 112.12,219.74 0,98.61 -36.06,171.29 -105.36,217.49 -69.87,46.2 -155.51,69.3 -258.06,69.3zm145.37 1089.69l-1191.67 0 0 -647.39 1191.67 0c61.41,0 118.88,10.14 175.23,31.55 54.65,19.72 100.85,54.66 135.22,102.55 34.94,49.58 52.97,112.12 52.97,189.88 0,215.79 -122.27,323.41 -363.42,323.41z"/>
   <polygon id="_8" class="fil0" points="18271.38,10095.89 18271.38,7545.77 17756.4,7545.77 17756.4,8600.53 15945.51,8600.53 15945.51,7545.77 15430.53,7545.77 15430.53,10095.89 15945.51,10095.89 15945.51,9042.82 17756.4,9042.82 17756.4,10095.89 "/>
   <path id="_9" class="fil0" d="M21691.44 10095.89l-1273.93 -2550.12 -541.47 0 -1274.49 2550.12 543.15 0 283.98 -580.91 1437.89 0 282.28 580.91 542.59 0zm-1041.23 -1023.2l-1006.87 0 503.15 -1036.73 503.72 1036.73z"/>
   <path id="_10" class="fil0" d="M24540.74 10095.89l-578.09 -940.94c166.78,-79.45 292.42,-183.12 374.68,-313.84 84.52,-131.84 125.65,-283.4 125.65,-455.25 0,-163.4 -36.06,-308.77 -107.05,-434.41 -71,-126.78 -171.85,-225.94 -303.69,-296.93 -130.72,-72.69 -285.67,-108.75 -467.66,-108.75l-1561.28 0 0 2550.12 514.98 0 0 -871.64 898.12 0 520.05 871.64 584.29 0zm-956.16 -1313.94l-1046.3 0 0 -793.88 1046.3 0c95.79,0 180.3,36.06 252.99,105.36 72.68,69.31 110.43,166.78 110.43,292.43 0,123.95 -34.93,220.86 -102.55,290.73 -69.3,69.3 -154.94,105.36 -260.87,105.36z"/>
   <path id="_11" class="fil0" d="M27927.56 10095.89l-1273.93 -2550.12 -541.47 0 -1274.49 2550.12 543.15 0 283.98 -580.91 1437.89 0 282.28 580.91 542.59 0zm-1041.23 -1023.2l-1006.87 0 503.15 -1036.73 503.72 1036.73z"/>
   <polygon id="_12" class="fil0" points="29194.16,10095.89 29194.16,7988.07 30357.66,7988.07 30357.66,7545.77 27516.81,7545.77 27516.81,7988.07 28679.18,7988.07 28679.18,10095.89 "/>
   <g>
    <path class="fil1" d="M4946.66 11448.55c71.91,16.94 465.98,-6.88 562.05,-14.65 179.23,-14.49 350.73,-30.76 522.59,-59.37 328.76,-54.73 635.28,-135.57 926.68,-243.31 134.84,-49.85 283.05,-109.97 410.63,-171.79 134.23,-65.03 264.3,-129.09 386.75,-200.8 260.11,-152.34 476,-297.85 691.73,-478.32 30.86,-25.82 49.04,-44.74 76.41,-66.42 83.61,-66.28 298.4,-281.82 370.01,-360.42 44.87,-49.23 92.17,-98.63 138.61,-157.9 38.43,-49.05 84.08,-99.88 130.98,-160.41 41.05,-52.97 80.21,-112.2 121.76,-169.21 83.38,-114.44 154.08,-233.23 227.91,-359.85 124.51,-213.51 281.09,-583.24 354.79,-814.71 93.88,-294.85 174.24,-669.66 194.97,-975.15 19.74,-290.96 25.03,-549.45 1.23,-841.91 -7.55,-92.75 -18.53,-173.52 -27.03,-262.34 -8.35,-87.18 -63.9,-409.93 -85.48,-497.92 -37.35,-152.24 -78.05,-316.75 -128.73,-459.07 -25.45,-71.46 -49.04,-145.86 -74.65,-216.28 -50.29,-138.27 -112.61,-274.2 -175.15,-407.19 -138.76,-295.06 -357.29,-655.43 -558.64,-907.97 -130.55,-163.75 -257.37,-318.49 -405.43,-467.74 -295.55,-297.94 -618.03,-555.31 -985.18,-772.35 -376.86,-222.78 -818.2,-410.01 -1248.24,-503 -58.36,-12.62 -199.86,-49.09 -250.09,-46.86 9.81,21.38 116.08,58.6 160.42,81.5 60.49,31.24 106.63,57.81 158.79,88.02 50.99,29.52 101.8,60.72 154,93.01 83.83,51.86 214.45,139 293.53,200.65 75.03,58.49 211.04,165.11 269.85,224.42 18.89,19.04 43.53,36.69 65.89,54.96 87.19,71.26 218.75,229.2 297.49,317.52l215.67 278.72c236.35,338.2 357.37,559.46 522.02,955.16 149.43,359.15 256.96,791.71 306.07,1176.63 73.56,576.41 59.22,1267.73 -61.07,1823.19 -92.57,427.41 -200.01,704.6 -391.28,1086.87 -114.82,229.46 -329.43,537.64 -487.68,742.53 -19.67,25.46 -33.65,42.8 -52.68,68.23l-560.71 675.01c-19.44,22.67 -37.54,38.38 -58.12,62.7 -110.42,130.5 -233.92,262.22 -347.83,393.66l-240.16 254.15c-162.76,167.42 -329.96,325.75 -507.79,475.4 -185.81,156.37 -386.73,277.73 -597.73,390.95 -53.16,28.53 -103.66,58.49 -162.34,85.05 -26.39,11.94 -151.84,60.26 -154.82,86.61z"/>
    <path class="fil2" d="M3547.24 11065.11c-8.46,-18.71 -109.74,-79.93 -148.13,-107.29l-358.49 -284.16c-186.34,-161.1 -395.21,-410.03 -552.4,-611.78 -22.44,-28.8 -33.35,-47.34 -52.71,-73.94 -18.53,-25.45 -39.89,-50.43 -56.02,-75.57 -33.24,-51.81 -69.27,-103.52 -101.02,-157.17 -32.91,-55.61 -66.34,-108.3 -96.23,-161.86 -29.36,-52.59 -58.69,-117.95 -88.55,-169.78 -132.36,-229.72 -283.64,-688.2 -347.87,-947.77 -17.33,-70.05 -28.76,-145.92 -40.96,-216.55 -82.16,-475.54 -85.94,-964.38 2.18,-1440.43 38.75,-209.37 50.48,-229.93 96.88,-418.71 50.51,-205.47 127.62,-381.25 207.11,-567.64 37.42,-87.76 122.38,-259.45 171.44,-344.94 111.5,-194.23 168.63,-287.51 301.28,-478.61 74.8,-107.76 250.92,-339.83 339.34,-435.03 20.5,-22.08 34.82,-44.46 56.44,-69.97 75.87,-89.49 296.59,-323.3 378.01,-401.76l202.64 -187.3c88.27,-77.32 105.36,-106.19 202.64,-181.69 26.35,-20.45 46.06,-42.46 68.4,-63.66 25.69,-24.38 43.22,-34.72 69.98,-56.1 28.2,-22.52 43.63,-42.01 68.9,-63.07 25.45,-21.22 49.2,-38.74 69.94,-56.56l211.1 -178.52c22.72,-18.63 44.63,-41.88 69.56,-62.17 71.52,-58.19 143.57,-114.43 212.1,-178.09 43.47,-40.39 85.53,-70.92 137.67,-120.55 102.98,-98 174.49,-165.6 261.32,-254.86 42.35,-43.53 75.34,-82.08 126.54,-131.74 87.15,-84.53 157.33,-190.71 231.51,-284.84 143.94,-182.64 286.54,-449.36 363.47,-674.14 23.7,-69.25 37.83,-128.59 56.12,-202.52 62.79,-253.76 76.27,-551.88 14.3,-812.55 -4.67,-19.61 -8.32,-34.24 -13.23,-52.4 -13.49,-49.84 -11.49,-37.93 -23.09,-42.3 -32.27,419.69 -297.62,707.79 -558.97,908.74 -109.38,84.1 -229.86,165.46 -349.55,238.32l-186 110.62c-128.58,73.14 -251.19,140.5 -375.64,211.63l-1106.93 656.2c-136.51,83.77 -381.68,258.51 -517.37,361.42l-484.2 400.11c-74.03,62.36 -226.34,217.34 -297.2,290.54 -166.94,172.44 -393.21,457.04 -523.18,652.31 -182.04,273.5 -282.5,461.6 -413.29,767.59 -53.23,124.54 -121.76,305.04 -156.67,431.47 -99.6,360.67 -97.28,386.85 -147.6,730.31 -35.49,242.31 -45.28,613.69 -25.03,847.9 22.52,260.41 55.25,507.79 123.49,754.83 22.22,80.43 38.33,156.99 63.4,233.68 101.19,309.52 283.08,746.12 460.51,1011.22l174.85 264.52c22.44,32.03 41.92,56.77 63.12,85.22 21.55,28.93 40.72,59.26 62.23,86.1 24.08,30.06 44.69,46.61 67.78,80.48 21.72,31.84 41.94,51.3 66.18,76.66 56.86,59.47 51.24,69.94 140.04,156.47 26.35,25.67 47.51,48.49 73.21,75.08 327.11,338.31 767.9,647.98 1187.09,867.47 100.96,52.87 550.12,272.69 619.56,267.13z"/>
    <path class="fil3" d="M3288.53 9385.78c-0.11,203.94 9.56,382.2 54.74,568.74 95.37,393.78 221.45,662.27 434.13,992.86l115.48 166.96c1.44,-36.51 -18.09,-105.12 -24.57,-148.51 -7.58,-50.8 -14.47,-102.91 -22.52,-152.83 -42.32,-262.13 -25.59,-610.88 13.38,-864.15 25.63,-166.63 72.23,-298.56 125.41,-440.61 26,-69.46 60.39,-125.43 90.85,-188.28 75.56,-155.9 238.64,-375.74 350.8,-495.57 92.69,-99.03 252.45,-258.38 355.85,-341.65 63.71,-51.31 77.33,-69.15 157.57,-128.14 28.6,-21.03 54.1,-40.54 81.04,-61.79 233.61,-184.29 503.38,-343.43 761.57,-507.17l254.53 -168.26c207.62,-144.67 448.44,-319.05 628.51,-502.9 23.93,-24.42 46.99,-42.48 70.07,-67.24l198.48 -229.87c145.17,-177.95 221.62,-318.92 326.15,-514.3 89.04,-166.43 170.1,-445.49 215.53,-635.28 44.2,-184.69 46.79,-387.14 46.77,-582.53 -0.09,-523.37 -137.48,-961.25 -310.48,-1378.42 -40.78,-98.32 -90.56,-190.82 -136.09,-286.73 -21.51,-45.32 -50.8,-93.74 -73.97,-134.84 -27.06,-48.02 -48.67,-90.5 -78.18,-136.06 -26.89,-41.53 -51.46,-86.07 -78.66,-130.06 -72.72,-117.62 -152.08,-213.02 -214.99,-312.5 -16.27,-25.73 -28.1,-52.54 -50.05,-60.32 2.38,38.61 24.54,87.12 37.09,123.16l107.16 386.87c37.26,184 63.77,384.56 71.91,577.89 28.19,669.73 -150.11,1223.19 -524.86,1755.87 -123.71,175.83 -310.56,373.38 -463.56,519.49 -205.13,195.89 -332.62,283.74 -536.87,446.28 -76.95,61.23 -207.97,154.2 -275.63,213.47 -32.43,28.41 -63.43,45.94 -94.1,70.58l-90.8 73.98c-34.23,28.32 -60.94,43.36 -91.42,73.18l-172.62 151.42c-119.41,99.28 -226.41,215.59 -332.77,320.85 -69.35,68.62 -162.4,184.82 -228.71,260.13 -66.48,75.53 -277.97,382.42 -332.54,485.91 -134.92,255.84 -204.59,396.72 -284.56,698.69 -49.86,188.28 -78.96,373.73 -79.07,581.68z"/>
    <path class="fil4" d="M2175.49 8303.78c0.65,661.1 244,1221.11 607.8,1742.94 28.88,41.42 55.48,63.17 84.2,107.93 37.47,58.42 131.71,155.59 178.36,211.75 29.28,35.24 63.59,87.15 97.47,102.64 -2.08,-34.78 -83.34,-225.49 -101.62,-279.7 -32.81,-97.3 -58.16,-192.13 -84.8,-294.56 -97.33,-374.39 -106.91,-804.62 -46.86,-1191.55 38.56,-248.5 131.62,-562.13 231.82,-789.82 59.3,-134.75 104.77,-218.16 172.74,-343.14 123.27,-226.64 270.14,-425.8 413.25,-608.63 37.9,-48.42 81.48,-92.18 117.44,-135.18 82.13,-98.19 289.63,-307.15 388.24,-386.19l136.24 -116.38c51.81,-41.72 90.08,-74.45 143.04,-115.21 52.12,-40.11 92.43,-71.74 142.31,-110.3 21.73,-16.8 49.67,-38.3 69.85,-56.26 26.77,-23.83 48.4,-34.52 76.09,-55.96 328.19,-254.14 669.94,-546.66 902.29,-893.67 127.05,-189.75 172.74,-284.92 258.04,-510.67 47.39,-125.41 85.61,-312.94 79.08,-460.93l-261.47 234.35c-90.58,69.87 -188.45,139.65 -295.36,209.97 -93.35,61.41 -212.06,127.34 -316.37,183.12 -266.43,142.49 -751.15,374.75 -988.05,522.63 -129.82,81.04 -336,203.35 -460.51,297.44l-281.37 218.51c-18.93,15.21 -44.71,43.86 -65.5,60.78 -366.52,298.29 -736.35,796.72 -922.21,1214.39 -80.97,181.96 -144.51,364.19 -194.92,562.57 -40.38,158.91 -79.38,513.92 -79.22,679.13z"/>
    <path class="fil5" d="M4229.49 11313.6c19.76,11.11 97.08,-9.22 128.86,-11.78 245.76,-19.76 411.64,-40.42 645.24,-125.62 359.8,-131.23 660.66,-353.17 834.52,-714.01 236.86,-491.61 22.71,-870.03 318.74,-1225.28 92.66,-111.19 223.63,-211.63 375.13,-239.68 45.96,-8.51 99.34,-9.46 147.25,-8.44 88.11,1.89 110.99,11.66 149.12,13.61 -5.53,-64.53 -92.96,-200.28 -123.15,-235.83 -52.68,-62.03 -127.16,-111.81 -217.8,-139.99 -99.48,-30.93 -202.71,-40.13 -315.55,-10.79 -96.81,25.16 -180.55,51.77 -255.97,100.16 -133.34,85.56 -269.43,219.28 -348.87,365.12 -264.68,485.96 -21.58,846.42 -407.65,1377.24 -80.36,110.49 -93.56,112.65 -160.09,196.91 -42.57,53.91 -128.85,134.48 -180.15,176.82l-139.24 124.44c-19.57,19.19 -30.78,25.68 -51.11,42.25 -33.96,27.68 -59.89,52.69 -96.17,79.67l-200.11 156.81c-15.92,11.55 -91.9,59.93 -103,78.39z"/>
   </g>
  </g>
 </g>
</svg>
